<svg width="2133" height="382" viewBox="0 0 2133 382" fill="none" xmlns="http://www.w3.org/2000/svg">
<path fill-rule="evenodd" clip-rule="evenodd" d="M21.238 81.2502L21.5 120.5L60.5 121.126C96.606 121.706 104.588 122.27 114 124.907C115.925 125.446 119.3 126.394 121.5 127.013C123.7 127.632 126.519 128.387 127.765 128.689C129.01 128.991 130.274 129.635 130.574 130.119C130.873 130.604 131.779 131 132.587 131C135.277 131 154.384 140.748 163 146.516C196.693 169.072 222.901 207.435 230.964 246C231.596 249.025 232.621 253.525 233.241 256C233.945 258.807 234.582 277.242 234.934 305L235.5 349.5H273H310.5L311.093 307C311.759 259.253 312.262 254.322 318.535 234C320.909 226.307 322.672 221.687 326.064 214.261C327.129 211.929 328 209.827 328 209.59C328 209.352 330.21 205.331 332.912 200.653C351.485 168.493 381.378 142.898 415.5 129.941C420.485 128.048 420.999 127.89 431.5 125.019C441.659 122.243 449.025 121.712 485.5 121.126L524.5 120.5L524.762 81.2502L525.023 42.0002H489.954C470.666 42.0002 451.874 42.4242 448.193 42.9422C444.512 43.4602 437.675 44.4052 433 45.0412C424.896 46.1442 421.547 46.8262 412.5 49.2142C404.596 51.3012 401.472 52.2602 399.764 53.1232C398.809 53.6052 397.424 54.0002 396.686 54.0002C395.457 54.0002 387.698 56.9372 379 60.6942C374.057 62.8302 361.57 69.0772 354.568 72.9182C327.745 87.6332 293.696 119.613 277.414 145.385C273.625 151.382 272.314 151.167 267.5 143.757C252.937 121.345 228.261 96.9852 202.732 79.8192C194.616 74.3622 167.89 60.0002 165.851 60.0002C165.371 60.0002 163.071 59.1382 160.739 58.0842C149.801 53.1392 129.924 47.6202 114 45.1062C96.934 42.4122 89.045 41.9872 56.238 41.9932L20.977 42.0002L21.238 81.2502Z" fill="#0883C6"/>
<mask id="path-2-inside-1_38_539" fill="white">
<path fill-rule="evenodd" clip-rule="evenodd" d="M2060.44 25.3941C2026.46 32.1051 2023.75 78.8131 2056.75 89.0041C2083.63 97.3071 2108.59 80.3781 2106.77 55.0751C2105.25 33.8201 2084.63 20.6151 2060.44 25.3941ZM1456 192V347H1482.5H1509V313.059V279.119L1516.18 271.309C1530.12 256.129 1538.18 247.845 1538.59 248.261C1538.83 248.492 1543.12 255.166 1548.14 263.091C1553.15 271.016 1562.67 286.05 1569.29 296.5C1575.91 306.95 1582.94 318.07 1584.91 321.21C1586.89 324.351 1591.34 331.439 1594.81 336.96L1601.13 347H1631.06C1648.77 347 1661 346.622 1661 346.073C1661 345.564 1658.83 341.851 1656.19 337.823C1653.54 333.796 1647.9 324.875 1643.65 318C1639.39 311.125 1632.92 300.775 1629.27 295C1625.62 289.225 1616.81 275.275 1609.69 264C1591.88 235.773 1585.3 225.392 1581.28 219.206L1577.83 213.912L1585.67 205.238C1589.97 200.467 1597.34 192.5 1602.02 187.532C1606.71 182.564 1619.75 168.375 1631 156C1642.24 143.625 1653.38 131.475 1655.74 129L1660.04 124.5L1627.27 124.228L1594.5 123.957L1585.98 132.728C1581.3 137.553 1568.71 150.725 1558 162C1531.54 189.863 1510.66 211.43 1509.75 211.833C1509.34 212.017 1509 172.754 1509 124.583V37.0001H1482.5H1456V192ZM636.636 46.2501C638.268 50.7321 641.36 59.5661 653.001 93.0001C662.485 120.24 673.68 152.3 681.636 175C691.284 202.528 696.303 216.987 701.423 232C703.955 239.425 706.419 246.4 706.898 247.5C707.378 248.6 711.235 259.625 715.47 272C719.705 284.375 723.776 296.075 724.516 298C727.557 305.913 741 345.062 741 346.007C741 346.686 751.765 346.939 773.139 346.764L805.278 346.5L811.724 328C815.27 317.825 821.545 299.825 825.67 288C829.794 276.175 833.769 264.7 834.503 262.5C835.237 260.3 838.603 250.625 841.984 241C845.364 231.375 849.191 220.35 850.488 216.5C852.699 209.937 857.358 196.53 875.684 144C879.81 132.175 883.552 121.375 884.001 120C884.449 118.625 888.059 108.275 892.022 97.0001C895.985 85.7251 900.269 73.3501 901.543 69.5001C902.817 65.6501 905.465 58.0301 907.429 52.5681C909.393 47.1051 911 42.4921 911 42.3181C911 42.1431 897.555 42.0001 881.121 42.0001H851.243L850.179 44.7501C849.595 46.2631 844.82 60.5501 839.57 76.5001C784.999 242.272 773.66 276.063 772.881 275.246C772.489 274.836 765.101 253.125 756.462 227C747.823 200.875 733.682 158.125 725.037 132C716.392 105.875 706.21 74.9431 702.41 63.2631L695.5 42.0251L665.294 42.0131L635.089 42.0001L636.636 46.2501ZM1016.55 120.048C895.411 133.651 872.247 298.86 985.206 343.608C1054.52 371.067 1133.01 328.148 1145.58 255.901C1159.08 178.364 1095.3 111.206 1016.55 120.048ZM1289 119.585C1131.29 136.485 1150.24 362.729 1308.38 350.926C1381.47 345.471 1429.56 275.78 1410.45 203C1397 151.742 1341.92 113.914 1289 119.585ZM1884 119.613C1851.94 122.792 1829.77 132.726 1811.71 151.999C1804.32 159.884 1794.3 176.887 1796.58 177.678C1797.18 177.885 1806.84 182.508 1818.05 187.951C1829.26 193.394 1838.7 197.682 1839.03 197.48C1839.36 197.277 1840.71 194.949 1842.04 192.306C1862.12 152.248 1927.2 157.263 1930.71 199.138C1931.34 206.633 1931.61 206.365 1922.5 207.521C1917.67 208.134 1906.3 209.966 1872.5 215.573C1817.05 224.773 1793.71 241.996 1787.94 277.962C1782.04 314.805 1803.41 341.563 1846 350.633C1871.69 356.104 1909.32 345.874 1928.09 328.316L1933 323.726V335.38V347.034L1958.25 346.767L1983.5 346.5V266V185.5L1981.24 177.691C1970.31 139.978 1928.78 115.172 1884 119.613ZM2040 235V347H2069.5H2099V235V123H2069.5H2040V235ZM1041.57 169.095C1105.59 180.907 1108.61 284.859 1045.4 301.025C1005.35 311.269 970.572 284.066 967.386 240C964.151 195.264 999.626 161.356 1041.57 169.095ZM1310.33 169.483C1374.78 183.138 1375.4 286.107 1311.13 301.508C1270.18 311.321 1235.5 281.052 1235.5 235.5C1235.5 190.272 1268.99 160.724 1310.33 169.483ZM1930.61 256.718C1927.98 294.224 1894.08 320.021 1861.36 309.424C1825.98 297.962 1839.16 262.298 1881.5 254.947C1888.65 253.706 1901.47 251.467 1910 249.971C1918.53 248.475 1926.8 247.194 1928.4 247.125L1931.3 247L1930.61 256.718ZM1712 286.396C1675.99 293.069 1676.83 342.456 1713.05 348.076C1756.73 354.853 1768.95 294.117 1725.53 286.089C1722.29 285.49 1719.38 285.043 1719.07 285.096C1718.76 285.149 1715.57 285.734 1712 286.396Z"/>
</mask>
<path fill-rule="evenodd" clip-rule="evenodd" d="M2060.44 25.3941C2026.46 32.1051 2023.75 78.8131 2056.75 89.0041C2083.63 97.3071 2108.59 80.3781 2106.77 55.0751C2105.25 33.8201 2084.63 20.6151 2060.44 25.3941ZM1456 192V347H1482.5H1509V313.059V279.119L1516.18 271.309C1530.12 256.129 1538.18 247.845 1538.59 248.261C1538.83 248.492 1543.12 255.166 1548.14 263.091C1553.15 271.016 1562.67 286.05 1569.29 296.5C1575.91 306.95 1582.94 318.07 1584.91 321.21C1586.89 324.351 1591.34 331.439 1594.81 336.96L1601.13 347H1631.06C1648.77 347 1661 346.622 1661 346.073C1661 345.564 1658.83 341.851 1656.19 337.823C1653.54 333.796 1647.9 324.875 1643.65 318C1639.39 311.125 1632.92 300.775 1629.27 295C1625.62 289.225 1616.81 275.275 1609.69 264C1591.88 235.773 1585.3 225.392 1581.28 219.206L1577.83 213.912L1585.67 205.238C1589.97 200.467 1597.34 192.5 1602.02 187.532C1606.71 182.564 1619.75 168.375 1631 156C1642.24 143.625 1653.38 131.475 1655.74 129L1660.04 124.5L1627.27 124.228L1594.5 123.957L1585.98 132.728C1581.3 137.553 1568.71 150.725 1558 162C1531.54 189.863 1510.66 211.43 1509.75 211.833C1509.34 212.017 1509 172.754 1509 124.583V37.0001H1482.5H1456V192ZM636.636 46.2501C638.268 50.7321 641.36 59.5661 653.001 93.0001C662.485 120.24 673.68 152.3 681.636 175C691.284 202.528 696.303 216.987 701.423 232C703.955 239.425 706.419 246.4 706.898 247.5C707.378 248.6 711.235 259.625 715.47 272C719.705 284.375 723.776 296.075 724.516 298C727.557 305.913 741 345.062 741 346.007C741 346.686 751.765 346.939 773.139 346.764L805.278 346.5L811.724 328C815.27 317.825 821.545 299.825 825.67 288C829.794 276.175 833.769 264.7 834.503 262.5C835.237 260.3 838.603 250.625 841.984 241C845.364 231.375 849.191 220.35 850.488 216.5C852.699 209.937 857.358 196.53 875.684 144C879.81 132.175 883.552 121.375 884.001 120C884.449 118.625 888.059 108.275 892.022 97.0001C895.985 85.7251 900.269 73.3501 901.543 69.5001C902.817 65.6501 905.465 58.0301 907.429 52.5681C909.393 47.1051 911 42.4921 911 42.3181C911 42.1431 897.555 42.0001 881.121 42.0001H851.243L850.179 44.7501C849.595 46.2631 844.82 60.5501 839.57 76.5001C784.999 242.272 773.66 276.063 772.881 275.246C772.489 274.836 765.101 253.125 756.462 227C747.823 200.875 733.682 158.125 725.037 132C716.392 105.875 706.21 74.9431 702.41 63.2631L695.5 42.0251L665.294 42.0131L635.089 42.0001L636.636 46.2501ZM1016.55 120.048C895.411 133.651 872.247 298.86 985.206 343.608C1054.52 371.067 1133.01 328.148 1145.58 255.901C1159.08 178.364 1095.3 111.206 1016.55 120.048ZM1289 119.585C1131.29 136.485 1150.24 362.729 1308.38 350.926C1381.47 345.471 1429.56 275.78 1410.45 203C1397 151.742 1341.92 113.914 1289 119.585ZM1884 119.613C1851.94 122.792 1829.77 132.726 1811.71 151.999C1804.32 159.884 1794.3 176.887 1796.58 177.678C1797.18 177.885 1806.84 182.508 1818.05 187.951C1829.26 193.394 1838.7 197.682 1839.03 197.48C1839.36 197.277 1840.71 194.949 1842.04 192.306C1862.12 152.248 1927.2 157.263 1930.71 199.138C1931.34 206.633 1931.61 206.365 1922.5 207.521C1917.67 208.134 1906.3 209.966 1872.5 215.573C1817.05 224.773 1793.71 241.996 1787.94 277.962C1782.04 314.805 1803.41 341.563 1846 350.633C1871.69 356.104 1909.32 345.874 1928.09 328.316L1933 323.726V335.38V347.034L1958.25 346.767L1983.5 346.5V266V185.5L1981.24 177.691C1970.31 139.978 1928.78 115.172 1884 119.613ZM2040 235V347H2069.5H2099V235V123H2069.5H2040V235ZM1041.57 169.095C1105.59 180.907 1108.61 284.859 1045.4 301.025C1005.35 311.269 970.572 284.066 967.386 240C964.151 195.264 999.626 161.356 1041.57 169.095ZM1310.33 169.483C1374.78 183.138 1375.4 286.107 1311.13 301.508C1270.18 311.321 1235.5 281.052 1235.5 235.5C1235.5 190.272 1268.99 160.724 1310.33 169.483ZM1930.61 256.718C1927.98 294.224 1894.08 320.021 1861.36 309.424C1825.98 297.962 1839.16 262.298 1881.5 254.947C1888.65 253.706 1901.47 251.467 1910 249.971C1918.53 248.475 1926.8 247.194 1928.4 247.125L1931.3 247L1930.61 256.718ZM1712 286.396C1675.99 293.069 1676.83 342.456 1713.05 348.076C1756.73 354.853 1768.95 294.117 1725.53 286.089C1722.29 285.49 1719.38 285.043 1719.07 285.096C1718.76 285.149 1715.57 285.734 1712 286.396Z" fill="#E5E7EB" stroke="#E5E7EB" stroke-width="2" mask="url(#path-2-inside-1_38_539)"/>
</svg>
